<mxfile host="app.diagrams.net" agent="Mozilla/5.0 (Windows NT 10.0; Win64; x64) AppleWebKit/537.36 (KHTML, like Gecko) Chrome/132.0.0.0 Safari/537.36" version="26.0.8">
  <diagram name="Page-1" id="zP6wzRz9r5LpWP_PtcU_">
    <mxGraphModel dx="1050" dy="617" grid="1" gridSize="10" guides="1" tooltips="1" connect="1" arrows="1" fold="1" page="1" pageScale="1" pageWidth="1654" pageHeight="1169" math="0" shadow="0">
      <root>
        <mxCell id="0" />
        <mxCell id="1" parent="0" />
        <mxCell id="k6x84uJGbS90VUC5g5yI-51" style="edgeStyle=orthogonalEdgeStyle;rounded=0;orthogonalLoop=1;jettySize=auto;html=1;exitX=0.5;exitY=0.5;exitDx=0;exitDy=0;exitPerimeter=0;fillColor=#dae8fc;strokeColor=#6c8ebf;" parent="1" source="k6x84uJGbS90VUC5g5yI-1" target="k6x84uJGbS90VUC5g5yI-2" edge="1">
          <mxGeometry relative="1" as="geometry">
            <mxPoint x="530" y="755" as="targetPoint" />
          </mxGeometry>
        </mxCell>
        <mxCell id="rDgIhhFxG3D8Y_QI1E0Q-1" style="edgeStyle=orthogonalEdgeStyle;rounded=0;orthogonalLoop=1;jettySize=auto;html=1;exitX=0.5;exitY=0.5;exitDx=0;exitDy=0;exitPerimeter=0;entryX=0;entryY=0.5;entryDx=0;entryDy=0;fillColor=#dae8fc;strokeColor=#6c8ebf;" parent="1" source="k6x84uJGbS90VUC5g5yI-1" target="k6x84uJGbS90VUC5g5yI-66" edge="1">
          <mxGeometry relative="1" as="geometry" />
        </mxCell>
        <mxCell id="K1-2WigZk9Gggby-33Rz-4" style="edgeStyle=orthogonalEdgeStyle;rounded=0;orthogonalLoop=1;jettySize=auto;html=1;exitX=0.5;exitY=0.5;exitDx=0;exitDy=0;exitPerimeter=0;entryX=0.5;entryY=0;entryDx=0;entryDy=0;fillColor=#dae8fc;strokeColor=#6c8ebf;gradientColor=#7ea6e0;" edge="1" parent="1" source="k6x84uJGbS90VUC5g5yI-1" target="K1-2WigZk9Gggby-33Rz-3">
          <mxGeometry relative="1" as="geometry" />
        </mxCell>
        <mxCell id="k6x84uJGbS90VUC5g5yI-1" value="User" style="shape=umlActor;verticalLabelPosition=bottom;verticalAlign=top;html=1;outlineConnect=0;fillColor=#dae8fc;gradientColor=#7ea6e0;strokeColor=#6c8ebf;" parent="1" vertex="1">
          <mxGeometry x="210" y="705" width="50" height="100" as="geometry" />
        </mxCell>
        <mxCell id="k6x84uJGbS90VUC5g5yI-44" style="edgeStyle=orthogonalEdgeStyle;rounded=0;orthogonalLoop=1;jettySize=auto;html=1;exitX=1;exitY=0.25;exitDx=0;exitDy=0;fillColor=#dae8fc;strokeColor=#6c8ebf;" parent="1" source="k6x84uJGbS90VUC5g5yI-2" edge="1">
          <mxGeometry relative="1" as="geometry">
            <mxPoint x="840" y="490" as="targetPoint" />
            <Array as="points">
              <mxPoint x="765" y="523" />
              <mxPoint x="765" y="490" />
              <mxPoint x="840" y="490" />
            </Array>
          </mxGeometry>
        </mxCell>
        <mxCell id="k6x84uJGbS90VUC5g5yI-45" style="edgeStyle=orthogonalEdgeStyle;rounded=0;orthogonalLoop=1;jettySize=auto;html=1;exitX=1;exitY=0.75;exitDx=0;exitDy=0;entryX=-0.003;entryY=0.614;entryDx=0;entryDy=0;fillColor=#dae8fc;strokeColor=#6c8ebf;entryPerimeter=0;" parent="1" source="k6x84uJGbS90VUC5g5yI-2" target="k6x84uJGbS90VUC5g5yI-4" edge="1">
          <mxGeometry relative="1" as="geometry">
            <Array as="points">
              <mxPoint x="765" y="548" />
              <mxPoint x="765" y="580" />
              <mxPoint x="840" y="580" />
            </Array>
          </mxGeometry>
        </mxCell>
        <mxCell id="k6x84uJGbS90VUC5g5yI-2" value="Select Character" style="rounded=1;whiteSpace=wrap;html=1;fillColor=#dae8fc;strokeColor=#6c8ebf;" parent="1" vertex="1">
          <mxGeometry x="550" y="510" width="140" height="50" as="geometry" />
        </mxCell>
        <mxCell id="k6x84uJGbS90VUC5g5yI-17" style="edgeStyle=orthogonalEdgeStyle;rounded=0;orthogonalLoop=1;jettySize=auto;html=1;exitX=1;exitY=0.5;exitDx=0;exitDy=0;entryX=0;entryY=0.5;entryDx=0;entryDy=0;fillColor=#dae8fc;strokeColor=#6c8ebf;" parent="1" source="k6x84uJGbS90VUC5g5yI-3" target="k6x84uJGbS90VUC5g5yI-15" edge="1">
          <mxGeometry relative="1" as="geometry" />
        </mxCell>
        <mxCell id="k6x84uJGbS90VUC5g5yI-3" value="Initiate Chat&lt;div&gt;with Character&lt;/div&gt;" style="rounded=1;whiteSpace=wrap;html=1;fillColor=#dae8fc;strokeColor=#6c8ebf;" parent="1" vertex="1">
          <mxGeometry x="840" y="470" width="140" height="50" as="geometry" />
        </mxCell>
        <mxCell id="k6x84uJGbS90VUC5g5yI-19" style="edgeStyle=orthogonalEdgeStyle;rounded=0;orthogonalLoop=1;jettySize=auto;html=1;exitX=1;exitY=0.5;exitDx=0;exitDy=0;entryX=0;entryY=0.5;entryDx=0;entryDy=0;fillColor=#dae8fc;strokeColor=#6c8ebf;" parent="1" source="k6x84uJGbS90VUC5g5yI-4" target="k6x84uJGbS90VUC5g5yI-18" edge="1">
          <mxGeometry relative="1" as="geometry" />
        </mxCell>
        <mxCell id="k6x84uJGbS90VUC5g5yI-4" value="Initiate Chat&lt;div&gt;Between Characters&lt;/div&gt;" style="rounded=1;whiteSpace=wrap;html=1;fillColor=#dae8fc;strokeColor=#6c8ebf;" parent="1" vertex="1">
          <mxGeometry x="840" y="550" width="140" height="50" as="geometry" />
        </mxCell>
        <mxCell id="k6x84uJGbS90VUC5g5yI-5" value="View Chat History" style="rounded=1;whiteSpace=wrap;html=1;fillColor=#dae8fc;strokeColor=#6c8ebf;" parent="1" vertex="1">
          <mxGeometry x="840" y="660" width="140" height="50" as="geometry" />
        </mxCell>
        <mxCell id="k6x84uJGbS90VUC5g5yI-15" value="Generate Character Response" style="rounded=1;whiteSpace=wrap;html=1;fillColor=#b1ddf0;strokeColor=#10739e;" parent="1" vertex="1">
          <mxGeometry x="1020" y="470" width="140" height="50" as="geometry" />
        </mxCell>
        <mxCell id="k6x84uJGbS90VUC5g5yI-18" value="Generate Character-to-Character Conversation" style="rounded=1;whiteSpace=wrap;html=1;fillColor=#b1ddf0;strokeColor=#10739e;" parent="1" vertex="1">
          <mxGeometry x="1020" y="550" width="140" height="50" as="geometry" />
        </mxCell>
        <mxCell id="k6x84uJGbS90VUC5g5yI-74" style="edgeStyle=orthogonalEdgeStyle;rounded=0;orthogonalLoop=1;jettySize=auto;html=1;exitX=1;exitY=0.5;exitDx=0;exitDy=0;fillColor=#dae8fc;strokeColor=#6c8ebf;dashed=1;" parent="1" source="k6x84uJGbS90VUC5g5yI-20" target="k6x84uJGbS90VUC5g5yI-2" edge="1">
          <mxGeometry relative="1" as="geometry" />
        </mxCell>
        <mxCell id="k6x84uJGbS90VUC5g5yI-20" value="Characters Personalities:&lt;div&gt;Mayor, Economy Expert, Farmer, Environment Activist&lt;/div&gt;" style="rounded=1;whiteSpace=wrap;html=1;fillColor=#bac8d3;strokeColor=#23445d;" parent="1" vertex="1">
          <mxGeometry x="295" y="480" width="190" height="110" as="geometry" />
        </mxCell>
        <mxCell id="k6x84uJGbS90VUC5g5yI-39" style="edgeStyle=orthogonalEdgeStyle;rounded=0;orthogonalLoop=1;jettySize=auto;html=1;exitX=0.5;exitY=0.5;exitDx=0;exitDy=0;exitPerimeter=0;entryX=0;entryY=0.5;entryDx=0;entryDy=0;fillColor=#d5e8d4;strokeColor=#82b366;" parent="1" source="k6x84uJGbS90VUC5g5yI-33" target="k6x84uJGbS90VUC5g5yI-37" edge="1">
          <mxGeometry relative="1" as="geometry" />
        </mxCell>
        <mxCell id="k6x84uJGbS90VUC5g5yI-71" style="edgeStyle=orthogonalEdgeStyle;rounded=0;orthogonalLoop=1;jettySize=auto;html=1;exitX=0.5;exitY=0.5;exitDx=0;exitDy=0;exitPerimeter=0;entryX=0;entryY=0.5;entryDx=0;entryDy=0;fillColor=#d5e8d4;strokeColor=#82b366;" parent="1" source="k6x84uJGbS90VUC5g5yI-33" target="k6x84uJGbS90VUC5g5yI-68" edge="1">
          <mxGeometry relative="1" as="geometry" />
        </mxCell>
        <mxCell id="k6x84uJGbS90VUC5g5yI-33" value="Visitor" style="shape=umlActor;verticalLabelPosition=bottom;verticalAlign=top;html=1;outlineConnect=0;fillColor=#d5e8d4;gradientColor=#97d077;strokeColor=#82b366;" parent="1" vertex="1">
          <mxGeometry x="210" y="190" width="50" height="100" as="geometry" />
        </mxCell>
        <mxCell id="k6x84uJGbS90VUC5g5yI-37" value="Continue as Guest" style="rounded=1;whiteSpace=wrap;html=1;fillColor=#d5e8d4;strokeColor=#82b366;" parent="1" vertex="1">
          <mxGeometry x="320" y="215" width="140" height="50" as="geometry" />
        </mxCell>
        <mxCell id="k6x84uJGbS90VUC5g5yI-38" value="Create Account/Login" style="rounded=1;whiteSpace=wrap;html=1;fillColor=#d5e8d4;strokeColor=#82b366;" parent="1" vertex="1">
          <mxGeometry x="320" y="140" width="140" height="50" as="geometry" />
        </mxCell>
        <mxCell id="k6x84uJGbS90VUC5g5yI-40" style="edgeStyle=orthogonalEdgeStyle;rounded=0;orthogonalLoop=1;jettySize=auto;html=1;exitX=0.5;exitY=0.5;exitDx=0;exitDy=0;exitPerimeter=0;entryX=0;entryY=0.5;entryDx=0;entryDy=0;fillColor=#d5e8d4;strokeColor=#82b366;" parent="1" source="k6x84uJGbS90VUC5g5yI-33" target="k6x84uJGbS90VUC5g5yI-38" edge="1">
          <mxGeometry relative="1" as="geometry" />
        </mxCell>
        <mxCell id="k6x84uJGbS90VUC5g5yI-60" style="edgeStyle=orthogonalEdgeStyle;rounded=0;orthogonalLoop=1;jettySize=auto;html=1;fillColor=#dae8fc;strokeColor=#6c8ebf;" parent="1" edge="1">
          <mxGeometry relative="1" as="geometry">
            <mxPoint x="680" y="560" as="sourcePoint" />
            <mxPoint x="840" y="685" as="targetPoint" />
            <Array as="points">
              <mxPoint x="680" y="685" />
              <mxPoint x="840" y="685" />
            </Array>
          </mxGeometry>
        </mxCell>
        <mxCell id="k6x84uJGbS90VUC5g5yI-66" value="Log Out" style="rounded=1;whiteSpace=wrap;html=1;fillColor=#dae8fc;strokeColor=#6c8ebf;" parent="1" vertex="1">
          <mxGeometry x="840" y="770" width="140" height="50" as="geometry" />
        </mxCell>
        <mxCell id="k6x84uJGbS90VUC5g5yI-68" value="Use Dark M&lt;span style=&quot;background-color: transparent; color: light-dark(rgb(0, 0, 0), rgb(255, 255, 255));&quot;&gt;ode&lt;/span&gt;" style="rounded=1;whiteSpace=wrap;html=1;fillColor=#d5e8d4;strokeColor=#82b366;" parent="1" vertex="1">
          <mxGeometry x="320" y="290" width="140" height="50" as="geometry" />
        </mxCell>
        <mxCell id="K1-2WigZk9Gggby-33Rz-3" value="Use Dark Mode" style="rounded=1;whiteSpace=wrap;html=1;fillColor=#dae8fc;strokeColor=#6c8ebf;" vertex="1" parent="1">
          <mxGeometry x="340" y="850" width="140" height="50" as="geometry" />
        </mxCell>
      </root>
    </mxGraphModel>
  </diagram>
</mxfile>
